<?xml version="1.0" encoding="UTF-8"?>
<!DOCTYPE svg PUBLIC "-//W3C//DTD SVG 1.1//EN" "http://www.w3.org/Graphics/SVG/1.1/DTD/svg11.dtd">
<svg xmlns="http://www.w3.org/2000/svg" xmlns:xlink="http://www.w3.org/1999/xlink" version="1.1" width="163px" height="148px" viewBox="-0.5 -0.5 163 148"><defs/><g><rect x="1" y="21" width="160" height="110" rx="11" ry="11" fill="#666666" stroke="rgb(0, 0, 0)" stroke-width="3" pointer-events="all"/><rect x="6" y="26" width="150" height="100" rx="10" ry="10" fill="#e6e6e6" stroke="none" pointer-events="all"/><rect x="61" y="131" width="40" height="10" fill="#666666" stroke="rgb(0, 0, 0)" stroke-width="3" pointer-events="all"/><rect x="21" y="141" width="120" height="5" rx="0.75" ry="0.75" fill="#666666" stroke="rgb(0, 0, 0)" stroke-width="3" pointer-events="all"/><rect x="21" y="33.5" width="120" height="70" rx="7" ry="7" fill="#000000" stroke="#000000" stroke-width="3" pointer-events="all" transform="translate(2,3)" opacity="0.25"/><rect x="21" y="33.5" width="120" height="70" rx="7" ry="7" fill="#666666" stroke="rgb(0, 0, 0)" stroke-width="3" pointer-events="all"/><rect x="71" y="103.5" width="20" height="10" fill="#000000" stroke="#000000" stroke-width="3" pointer-events="all" transform="translate(2,3)" opacity="0.25"/><rect x="71" y="103.5" width="20" height="10" fill="#666666" stroke="rgb(0, 0, 0)" stroke-width="3" pointer-events="all"/><rect x="41" y="113.5" width="80" height="5" rx="0.75" ry="0.75" fill="#000000" stroke="#000000" stroke-width="3" pointer-events="all" transform="translate(2,3)" opacity="0.25"/><rect x="41" y="113.5" width="80" height="5" rx="0.75" ry="0.75" fill="#666666" stroke="rgb(0, 0, 0)" stroke-width="3" pointer-events="all"/><rect x="24" y="36.5" width="114" height="64" rx="6.4" ry="6.4" fill="#dae8fc" stroke="none" pointer-events="all"/><path d="M 84 101 Q 84 97 79 94 Q 74 91 73.82 86.96" fill="none" stroke="#b85450" stroke-width="3" stroke-miterlimit="10" pointer-events="stroke"/><path d="M 89 101 Q 89 101 88.94 92.36" fill="none" stroke="#82b366" stroke-width="3" stroke-miterlimit="10" pointer-events="stroke"/><rect x="41" y="100.5" width="80" height="1.5" fill="#666666" stroke="none" pointer-events="all"/><ellipse cx="104" cy="51" rx="30" ry="35" fill="#000000" stroke="none" transform="translate(2,3)rotate(15,104,51)" pointer-events="all" opacity="0.25"/><ellipse cx="104" cy="51" rx="30" ry="35" fill="#d5e8d4" stroke="none" transform="rotate(15,104,51)" pointer-events="all"/><ellipse cx="107.5" cy="47" rx="27.5" ry="30" fill="#dfedde" stroke="none" transform="rotate(15,107.5,47)" pointer-events="all"/><ellipse cx="104" cy="51" rx="30" ry="35" fill="none" stroke="#82b366" stroke-width="4" transform="rotate(15,104,51)" pointer-events="all"/><ellipse cx="59" cy="46" rx="30" ry="35" fill="#000000" stroke="none" transform="translate(2,3)rotate(-380,59,46)" pointer-events="all" opacity="0.25"/><ellipse cx="59" cy="46" rx="30" ry="35" fill="#f8cecc" stroke="none" transform="rotate(-380,59,46)" pointer-events="all"/><ellipse cx="59.5" cy="40" rx="27.5" ry="30" fill="#fadddb" stroke="none" transform="rotate(-380,59.5,40)" pointer-events="all"/><ellipse cx="59" cy="46" rx="30" ry="35" fill="none" stroke="#b85450" stroke-width="4" transform="rotate(-380,59,46)" pointer-events="all"/><path d="M 67.11 82.26 L 67.11 76.51 Q 67.11 70.76 72.11 76.51 L 74.61 79.38 Q 77.11 82.26 72.11 88.01 L 69.61 90.88 Q 67.11 93.76 67.11 88.01 Z" fill="#000000" stroke="#000000" stroke-width="4" stroke-miterlimit="10" transform="translate(2,3)rotate(250,72.11,82.26)" pointer-events="all" opacity="0.25"/><path d="M 67.11 82.26 L 67.11 76.51 Q 67.11 70.76 72.11 76.51 L 74.61 79.38 Q 77.11 82.26 72.11 88.01 L 69.61 90.88 Q 67.11 93.76 67.11 88.01 Z" fill="#f8cecc" stroke="#b85450" stroke-width="4" stroke-miterlimit="10" transform="rotate(250,72.11,82.26)" pointer-events="all"/><path d="M 87 87.26 L 87 81.51 Q 87 75.76 92 81.51 L 94.5 84.38 Q 97 87.26 92 93.01 L 89.5 95.88 Q 87 98.76 87 93.01 Z" fill="#000000" stroke="#000000" stroke-width="4" stroke-miterlimit="10" transform="translate(2,3)rotate(-75,92,87.26)" pointer-events="all" opacity="0.25"/><path d="M 87 87.26 L 87 81.51 Q 87 75.76 92 81.51 L 94.5 84.38 Q 97 87.26 92 93.01 L 89.5 95.88 Q 87 98.76 87 93.01 Z" fill="#d5e8d4" stroke="#82b366" stroke-width="4" stroke-miterlimit="10" transform="rotate(-75,92,87.26)" pointer-events="all"/></g></svg>